<?xml version="1.0" encoding="UTF-8"?> <svg xmlns="http://www.w3.org/2000/svg" width="225" height="70" viewBox="0 0 225 70" fill="none"> <path d="M190.044 1.94996L199.515 10.5949C199.03 11.1294 198.556 11.67 198.093 12.2017C193.352 17.641 188.532 23.4494 185.123 31.5042C184.723 32.4491 184.349 33.3998 184 34.3551V4.68974C184 1.50335 187.712 -0.179127 190.044 1.94996Z" fill="white"></path> <path d="M201.537 12.4406L212.341 22.3021C206.25 24.2417 200.399 26.8952 195.418 31.2246C190.111 35.8383 186.375 41.4986 184 47.7811V44.5272C184.779 40.5034 185.968 36.4953 187.619 32.5956C190.844 24.9748 195.41 19.4454 200.127 14.033C200.6 13.4899 201.069 12.956 201.537 12.4406Z" fill="white"></path> <path d="M223.798 32.7602C224.931 33.7945 225.263 35.3732 224.794 36.7268C223.48 36.725 222.182 36.7841 220.924 36.8493C212.815 37.2699 204.341 37.9602 196.805 42.3119C191.997 45.0888 187 48.6487 184 53.0156C184 53.0156 191.064 38.6442 197.184 33.3235C202.214 28.9517 208.246 26.382 214.706 24.4615L223.798 32.7602Z" fill="white"></path> <path d="M184 66.3102V60.7436C187.035 54.053 191.694 48.4403 198.148 44.7133C205.059 40.722 212.925 40.0297 221.063 39.6077C221.5 39.585 221.935 39.5636 222.367 39.5453L190.044 69.05C187.712 71.1791 184 69.4966 184 66.3102Z" fill="white"></path> <path d="M38.7871 40H31.1064V12.5C31.1064 11.9629 30.999 11.4616 30.7842 10.9961C30.5872 10.5306 30.3097 10.1278 29.9517 9.7876C29.6115 9.42952 29.2087 9.15202 28.7432 8.95508C28.2777 8.75814 27.7764 8.65967 27.2393 8.65967C26.7021 8.65967 26.2008 8.75814 25.7354 8.95508C25.2699 9.15202 24.8581 9.42952 24.5 9.7876C24.1598 10.1278 23.8913 10.5306 23.6943 10.9961C23.4974 11.4616 23.3989 11.9629 23.3989 12.5V40H15.6914V12.5C15.6914 11.9629 15.5929 11.4616 15.396 10.9961C15.1991 10.5306 14.9215 10.1278 14.5635 9.7876C14.2233 9.42952 13.8205 9.15202 13.355 8.95508C12.8895 8.75814 12.3882 8.65967 11.8511 8.65967C11.314 8.65967 10.8127 8.75814 10.3472 8.95508C9.88167 9.15202 9.46989 9.42952 9.11182 9.7876C8.77165 10.1278 8.50309 10.5306 8.30615 10.9961C8.10921 11.4616 8.01074 11.9629 8.01074 12.5V40H0.303223V12.5C0.303223 10.9066 0.598633 9.41162 1.18945 8.01514C1.79818 6.60075 2.62174 5.37435 3.66016 4.33594C4.71647 3.27962 5.94287 2.45605 7.33936 1.86523C8.75374 1.25651 10.2576 0.952148 11.8511 0.952148C13.2834 0.952148 14.6619 1.21175 15.9868 1.73096C17.3117 2.23226 18.5023 2.96631 19.5586 3.93311C20.6149 2.96631 21.7965 2.23226 23.1035 1.73096C24.4284 1.21175 25.807 0.952148 27.2393 0.952148C28.8327 0.952148 30.3276 1.25651 31.7241 1.86523C33.1385 2.45605 34.3649 3.27962 35.4033 4.33594C36.4596 5.37435 37.2832 6.60075 37.874 8.01514C38.4827 9.41162 38.7871 10.9066 38.7871 12.5V40Z" fill="white"></path> <path d="M53.3965 40H45.689V1.48926H53.3965V40Z" fill="white"></path> <path d="M68.2744 9.19678V24.6118H75.9819C77.0382 24.6118 78.0319 24.4149 78.9629 24.021C79.8939 23.6092 80.7085 23.0542 81.4067 22.356C82.105 21.6577 82.651 20.8431 83.0449 19.9121C83.4567 18.9632 83.6626 17.9606 83.6626 16.9043C83.6626 15.848 83.4567 14.8543 83.0449 13.9233C82.651 12.9744 82.105 12.1509 81.4067 11.4526C80.7085 10.7544 79.8939 10.2083 78.9629 9.81445C78.0319 9.40267 77.0382 9.19678 75.9819 9.19678H68.2744ZM68.2744 40H60.5669V1.48926H75.9819C77.3963 1.48926 78.757 1.67725 80.064 2.05322C81.3709 2.4113 82.5884 2.9305 83.7163 3.61084C84.8621 4.27327 85.9006 5.07894 86.8315 6.02783C87.7804 6.95882 88.5861 7.99723 89.2485 9.14307C89.9289 10.2889 90.4481 11.5153 90.8062 12.8223C91.1821 14.1292 91.3701 15.4899 91.3701 16.9043C91.3701 18.2292 91.2 19.5182 90.8599 20.7715C90.5376 22.0247 90.0632 23.2153 89.4365 24.3433C88.8278 25.4712 88.0758 26.5096 87.1807 27.4585C86.2855 28.4074 85.2829 29.231 84.1729 29.9292L88.4429 40H80.252L76.895 32.2388L68.2744 32.2925V40Z" fill="white"></path> <path d="M104.153 9.19678V24.6118H111.861C112.917 24.6118 113.911 24.4149 114.842 24.021C115.773 23.6092 116.587 23.0542 117.286 22.356C117.984 21.6577 118.53 20.8431 118.924 19.9121C119.336 18.9632 119.542 17.9606 119.542 16.9043C119.542 15.848 119.336 14.8543 118.924 13.9233C118.53 12.9744 117.984 12.1509 117.286 11.4526C116.587 10.7544 115.773 10.2083 114.842 9.81445C113.911 9.40267 112.917 9.19678 111.861 9.19678H104.153ZM104.153 40H96.4458V1.48926H111.861C113.275 1.48926 114.636 1.67725 115.943 2.05322C117.25 2.4113 118.467 2.9305 119.595 3.61084C120.741 4.27327 121.779 5.07894 122.71 6.02783C123.659 6.95882 124.465 7.99723 125.127 9.14307C125.808 10.2889 126.327 11.5153 126.685 12.8223C127.061 14.1292 127.249 15.4899 127.249 16.9043C127.249 18.2292 127.079 19.5182 126.739 20.7715C126.417 22.0247 125.942 23.2153 125.315 24.3433C124.707 25.4712 123.955 26.5096 123.06 27.4585C122.164 28.4074 121.162 29.231 120.052 29.9292L124.322 40H116.131L112.774 32.2388L104.153 32.2925V40Z" fill="white"></path> <path d="M154.991 24.6118V16.9043C154.991 15.848 154.785 14.8543 154.373 13.9233C153.979 12.9744 153.433 12.1509 152.735 11.4526C152.037 10.7544 151.213 10.2083 150.264 9.81445C149.333 9.40267 148.34 9.19678 147.283 9.19678C146.227 9.19678 145.224 9.40267 144.275 9.81445C143.344 10.2083 142.53 10.7544 141.832 11.4526C141.133 12.1509 140.578 12.9744 140.167 13.9233C139.773 14.8543 139.576 15.848 139.576 16.9043V24.6118H154.991ZM162.698 40H154.991V32.2925H139.576V40H131.895V16.9043C131.895 14.7738 132.298 12.7775 133.104 10.9155C133.909 9.03564 135.001 7.39746 136.38 6.00098C137.776 4.60449 139.406 3.50342 141.268 2.69775C143.147 1.89209 145.153 1.48926 147.283 1.48926C149.414 1.48926 151.41 1.89209 153.272 2.69775C155.152 3.50342 156.79 4.60449 158.187 6.00098C159.583 7.39746 160.684 9.03564 161.49 10.9155C162.295 12.7775 162.698 14.7738 162.698 16.9043V40Z" fill="white"></path> <path d="M4.5625 52.0781V61.0469H9.04688C9.66146 61.0469 10.2396 60.9323 10.7812 60.7031C11.3229 60.4635 11.7969 60.1406 12.2031 59.7344C12.6094 59.3281 12.9271 58.8542 13.1562 58.3125C13.3958 57.7604 13.5156 57.1771 13.5156 56.5625C13.5156 55.9479 13.3958 55.3698 13.1562 54.8281C12.9271 54.276 12.6094 53.7969 12.2031 53.3906C11.7969 52.9844 11.3229 52.6667 10.7812 52.4375C10.2396 52.1979 9.66146 52.0781 9.04688 52.0781H4.5625ZM4.5625 70H0.078125V47.5938H9.04688C9.86979 47.5938 10.6615 47.7031 11.4219 47.9219C12.1823 48.1302 12.8906 48.4323 13.5469 48.8281C14.2135 49.2135 14.8177 49.6823 15.3594 50.2344C15.9115 50.776 16.3802 51.3802 16.7656 52.0469C17.1615 52.7135 17.4635 53.4271 17.6719 54.1875C17.8906 54.9479 18 55.7396 18 56.5625C18 57.7917 17.7656 58.9531 17.2969 60.0469C16.8281 61.1302 16.1875 62.0781 15.375 62.8906C14.5625 63.7031 13.6094 64.3438 12.5156 64.8125C11.4323 65.2812 10.276 65.5156 9.04688 65.5156H4.5625V70Z" fill="white"></path> <path d="M64.6481 70H48.9606V47.5938H53.445V65.5156H64.6481V70Z" fill="white"></path> <path d="M114.202 61.0469C114.202 62.2865 113.968 63.4531 113.499 64.5469C113.031 65.6302 112.39 66.5781 111.577 67.3906C110.765 68.1927 109.812 68.8281 108.718 69.2969C107.635 69.7656 106.473 70 105.234 70C103.994 70 102.827 69.7656 101.734 69.2969C100.65 68.8281 99.7025 68.1927 98.89 67.3906C98.0879 66.5781 97.4525 65.6302 96.9837 64.5469C96.515 63.4531 96.2806 62.2865 96.2806 61.0469V47.5938H100.749V61.0469C100.749 61.6615 100.864 62.2396 101.093 62.7812C101.333 63.3229 101.656 63.7969 102.062 64.2031C102.468 64.6094 102.942 64.9323 103.484 65.1719C104.036 65.401 104.619 65.5156 105.234 65.5156C105.848 65.5156 106.426 65.401 106.968 65.1719C107.52 64.9323 107.999 64.6094 108.406 64.2031C108.812 63.7969 109.13 63.3229 109.359 62.7812C109.598 62.2396 109.718 61.6615 109.718 61.0469V47.5938H114.202V61.0469Z" fill="white"></path> <path d="M145.101 54.3125C145.101 53.3854 145.278 52.5156 145.632 51.7031C145.986 50.8906 146.465 50.1823 147.069 49.5781C147.684 48.9635 148.397 48.4792 149.21 48.125C150.022 47.7708 150.892 47.5938 151.819 47.5938H162.101V52.0781H151.819C151.507 52.0781 151.215 52.1354 150.944 52.25C150.674 52.3646 150.434 52.526 150.226 52.7344C150.028 52.9323 149.871 53.1667 149.757 53.4375C149.642 53.7083 149.585 54 149.585 54.3125C149.585 54.625 149.642 54.9219 149.757 55.2031C149.871 55.474 150.028 55.7135 150.226 55.9219C150.434 56.1198 150.674 56.276 150.944 56.3906C151.215 56.5052 151.507 56.5625 151.819 56.5625H156.304C157.231 56.5625 158.101 56.7396 158.913 57.0938C159.736 57.4375 160.45 57.9167 161.054 58.5312C161.668 59.1354 162.147 59.849 162.491 60.6719C162.845 61.4844 163.022 62.3542 163.022 63.2812C163.022 64.2083 162.845 65.0781 162.491 65.8906C162.147 66.7031 161.668 67.4167 161.054 68.0312C160.45 68.6354 159.736 69.1146 158.913 69.4688C158.101 69.8229 157.231 70 156.304 70H146.351V65.5156H156.304C156.616 65.5156 156.908 65.4583 157.179 65.3438C157.45 65.2292 157.684 65.0729 157.882 64.875C158.09 64.6667 158.252 64.4271 158.366 64.1562C158.481 63.8854 158.538 63.5938 158.538 63.2812C158.538 62.9688 158.481 62.6771 158.366 62.4062C158.252 62.1354 158.09 61.901 157.882 61.7031C157.684 61.4948 157.45 61.3333 157.179 61.2188C156.908 61.1042 156.616 61.0469 156.304 61.0469H151.819C150.892 61.0469 150.022 60.8698 149.21 60.5156C148.397 60.1615 147.684 59.6823 147.069 59.0781C146.465 58.4635 145.986 57.75 145.632 56.9375C145.278 56.1146 145.101 55.2396 145.101 54.3125Z" fill="white"></path> </svg> 